<svg width="32" height="32" viewBox="0 0 32 32" fill="none" xmlns="http://www.w3.org/2000/svg">
<path d="M28.0933 6.97332C25.9467 6.75999 23.8 6.59999 21.64 6.47999V6.46666L21.3467 4.73332C21.1467 3.50666 20.8533 1.66666 17.7333 1.66666H14.24C11.1333 1.66666 10.84 3.42666 10.6267 4.71999L10.3467 6.42666C9.10667 6.50666 7.86667 6.58666 6.62667 6.70666L3.90667 6.97332C3.34667 7.02666 2.94667 7.51999 3 8.06666C3.05333 8.61332 3.53333 9.01332 4.09333 8.95999L6.81333 8.69332C13.8 7.99999 20.84 8.26666 27.9067 8.97332C27.9467 8.97332 27.9733 8.97332 28.0133 8.97332C28.52 8.97332 28.96 8.58666 29.0133 8.06666C29.0533 7.51999 28.6533 7.02666 28.0933 6.97332Z" fill="#292D32"/>
<path opacity="0.3991" d="M25.64 10.8533C25.32 10.52 24.88 10.3333 24.4267 10.3333H7.57333C7.12 10.3333 6.66666 10.52 6.36 10.8533C6.05333 11.1867 5.88 11.64 5.90666 12.1067L6.73333 25.7867C6.88 27.8133 7.06666 30.3467 11.72 30.3467H20.28C24.9333 30.3467 25.12 27.8267 25.2667 25.7867L26.0933 12.12C26.12 11.64 25.9467 11.1867 25.64 10.8533Z" fill="#292D32"/>
<path fill-rule="evenodd" clip-rule="evenodd" d="M12.7733 22.6667C12.7733 22.1144 13.221 21.6667 13.7733 21.6667H18.2133C18.7656 21.6667 19.2133 22.1144 19.2133 22.6667C19.2133 23.2189 18.7656 23.6667 18.2133 23.6667H13.7733C13.221 23.6667 12.7733 23.2189 12.7733 22.6667Z" fill="#292D32"/>
<path fill-rule="evenodd" clip-rule="evenodd" d="M11.6667 17.3333C11.6667 16.7811 12.1144 16.3333 12.6667 16.3333H19.3333C19.8856 16.3333 20.3333 16.7811 20.3333 17.3333C20.3333 17.8856 19.8856 18.3333 19.3333 18.3333H12.6667C12.1144 18.3333 11.6667 17.8856 11.6667 17.3333Z" fill="#292D32"/>
</svg>
